<?xml version="1.0" encoding="utf-8"?>
<!-- Generator: Adobe Illustrator 16.0.0, SVG Export Plug-In . SVG Version: 6.00 Build 0)  -->
<!DOCTYPE svg PUBLIC "-//W3C//DTD SVG 1.1//EN" "http://www.w3.org/Graphics/SVG/1.1/DTD/svg11.dtd">
<svg version="1.1" id="Camada_1" xmlns="http://www.w3.org/2000/svg" xmlns:xlink="http://www.w3.org/1999/xlink" x="0px" y="0px"
	 width="750.467px" height="195.792px" viewBox="0 0 750.467 195.792" enable-background="new 0 0 750.467 195.792"
	 xml:space="preserve">
<g>
	<g>
		<path fill="#FFFFFF" d="M74.112,194.977c0,0,12.802,2.288,11.565-0.804c0,0-0.371-0.742-3.648-1.795
			c-6.556-2.227-12.246-6.678-17.75-11.379C29.337,151.563,24.206,98.563,53.085,62.076c0,0,0.371-0.434,0.557-0.681
			c5.751-7.235,12.863-12.679,20.594-16.265c5.999-2.723,6.184-3.959,6.184-3.959c1.793-6.184-21.027-1.174-21.027-1.174
			c-15.77,4.267-30.427,13.604-41.559,27.644C7.506,80.752,1.631,96.09,0.147,111.612c3.092,24.119,14.595,47.001,34.199,63.451
			C46.283,185.144,59.951,191.761,74.112,194.977z"/>
		<path fill="#FFFFFF" d="M0.828,74.135c0,0-2.288,12.802,0.742,11.564c0,0,0.743-0.371,1.855-3.648
			c2.165-6.493,6.679-12.244,11.317-17.748C44.243,29.36,97.181,24.228,133.729,53.17c0,0,0.371,0.371,0.618,0.496
			c7.297,5.75,12.678,12.862,16.265,20.594c2.783,5.998,4.02,6.123,4.02,6.123c6.123,1.854,1.113-20.965,1.113-20.965
			c-4.267-15.771-13.605-30.428-27.644-41.56C115.054,7.467,99.715,1.654,84.193,0.17C60.075,3.263,37.191,14.766,20.68,34.369
			C10.6,46.306,3.981,59.974,0.828,74.135z"/>
		<path fill="#FFFFFF" d="M121.608,0.789c0,0-12.802-2.227-11.503,0.803c0,0,0.371,0.742,3.587,1.793
			c6.556,2.227,12.245,6.742,17.811,11.38c34.88,29.499,40.075,82.438,11.132,118.925c0,0-0.371,0.433-0.495,0.681
			c-5.751,7.234-12.864,12.678-20.656,16.264c-5.999,2.724-6.123,4.021-6.123,4.021c-1.855,6.123,21.027,1.113,21.027,1.113
			c15.708-4.268,30.365-13.604,41.497-27.645c10.39-13.051,16.203-28.388,17.749-43.91c-3.092-24.118-14.657-47-34.2-63.512
			C149.438,10.623,135.833,4.004,121.608,0.789z"/>
		<path fill="#FFFFFF" d="M194.956,121.63c0,0,2.288-12.801-0.804-11.504c0,0-0.68,0.373-1.793,3.588
			c-2.165,6.556-6.679,12.246-11.379,17.812c-29.438,34.88-82.438,40.013-118.926,11.132c0,0-0.433-0.371-0.618-0.494
			c-7.297-5.752-12.74-12.926-16.327-20.656c-2.721-5.998-3.958-6.123-3.958-6.123c-6.185-1.854-1.175,21.027-1.175,21.027
			c4.329,15.709,13.605,30.428,27.644,41.498c13.111,10.389,28.448,16.201,43.971,17.748c24.119-3.093,46.939-14.656,63.452-34.199
			C185.122,149.46,191.74,135.792,194.956,121.63z"/>
	</g>
	<g>
		<path fill="#FFFFFF" d="M228.511,66.695h22.705c2.223,0,3.188,0.098,4.251,0.676c1.256,0.726,2.126,2.125,2.126,3.961
			s-0.87,3.237-2.126,3.961c-1.063,0.58-2.028,0.676-4.251,0.676h-22.705v20.773h27.633c2.222,0,3.188,0.098,4.251,0.676
			c1.256,0.726,2.126,2.125,2.126,3.96c0,1.834-0.87,3.236-2.126,3.961c-1.063,0.58-2.029,0.678-4.251,0.678h-31.691
			c-1.546,0-3.381,0-4.879-1.498c-1.498-1.497-1.498-3.333-1.498-4.879V43.604c0-1.546,0-3.382,1.498-4.879s3.333-1.498,4.879-1.498
			h31.691c2.222,0,3.188,0.097,4.251,0.676c1.256,0.726,2.126,2.125,2.126,3.962c0,1.836-0.87,3.236-2.126,3.961
			c-1.063,0.579-2.029,0.676-4.251,0.676h-27.633V66.695L228.511,66.695z"/>
		<path fill="#FFFFFF" d="M303.243,86.695c0-3.092-0.773-5.507-2.706-7.15c-1.738-1.545-4.058-2.416-7.487-2.897l-8.164-1.159
			c-5.556-0.82-9.759-2.562-12.995-5.556c-3.431-3.14-5.073-7.585-5.073-13.188c0-11.98,8.696-20.097,22.995-20.097
			c6.522,0,10.483,1.063,16.185,4.058c2.415,1.256,4.202,3.045,4.202,5.267c0,1.11-0.386,2.222-1.207,3.188
			c-0.773,0.916-1.788,1.498-3.188,1.498c-1.109,0-2.803-0.629-4.203-1.498c-4.104-2.513-7.343-3.383-12.172-3.383
			c-8.116,0-12.464,4.396-12.464,10.676c0,2.512,0.676,4.832,2.512,6.377c1.739,1.547,3.769,2.512,7.536,3.092l8.213,1.256
			c6.28,0.967,9.759,2.416,12.754,5.121c3.672,3.382,5.604,8.117,5.604,14.106c0,12.657-10.241,20.194-24.734,20.194
			c-8.261,0-13.43-1.597-18.502-4.64c-3.575-2.125-4.88-3.573-4.88-6.084c0-1.16,0.531-2.513,1.449-3.431
			c0.87-0.87,1.933-1.256,3.044-1.256c1.353,0,2.561,0.435,4.444,1.739c4.638,3.188,8.695,4.396,14.638,4.396
			C298.122,97.324,303.243,93.459,303.243,86.695z"/>
		<path fill="#FFFFFF" d="M361.356,45.826c-1.063,0.58-2.029,0.676-4.253,0.676h-12.945v52.802c0,2.561-0.048,3.382-0.772,4.734
			c-0.771,1.398-2.367,2.365-4.442,2.365c-2.078,0-3.674-0.967-4.445-2.365c-0.725-1.354-0.772-2.174-0.772-4.734V46.502H320.78
			c-2.224,0-3.188-0.096-4.251-0.676c-1.258-0.725-2.126-2.125-2.126-3.961c0-1.836,0.868-3.236,2.126-3.961
			c1.063-0.58,2.027-0.676,4.251-0.676h36.329c2.222,0,3.188,0.098,4.251,0.676c1.256,0.725,2.126,2.125,2.126,3.961
			C363.486,43.701,362.612,45.102,361.356,45.826z"/>
		<path fill="#FFFFFF" d="M367.971,82.832V43.941c0-2.561,0.049-3.381,0.773-4.734c0.771-1.4,2.367-2.367,4.444-2.367
			c2.075,0,3.672,0.967,4.443,2.367c0.727,1.354,0.773,2.174,0.773,4.734v38.406c0,9.227,5.604,14.977,14.202,14.977
			c8.6,0,14.201-5.75,14.201-14.977V43.941c0-2.561,0.051-3.381,0.773-4.734c0.772-1.4,2.367-2.367,4.444-2.367
			s3.672,0.967,4.442,2.367c0.727,1.354,0.773,2.174,0.773,4.734V82.83c0,14.203-10.629,23.769-24.639,23.769
			C378.601,106.599,367.971,97.035,367.971,82.832z"/>
		<path fill="#FFFFFF" d="M434.637,37.228h17.826c8.646,0,14.978,2.897,19.613,8.744c4.831,6.184,5.072,13.43,5.072,25.651
			c0,12.224-0.34,19.565-5.171,25.75c-4.59,5.893-10.868,8.646-19.517,8.646h-17.826c-1.546,0-3.382,0-4.88-1.498
			c-1.497-1.497-1.497-3.333-1.497-4.879V43.604c0-1.546,0-3.382,1.497-4.879C431.255,37.228,433.091,37.228,434.637,37.228z
			 M438.695,96.744h12.561c4.978,0,8.938-1.353,11.836-4.686c3.432-3.865,3.623-10.242,3.623-20.436
			c0-10.192-0.191-16.569-3.623-20.435c-2.896-3.333-6.858-4.687-11.836-4.687h-12.561V96.744z"/>
		<path fill="#FFFFFF" d="M492.75,92.203l-3.431,9.227c-0.869,2.319-1.306,3.188-2.271,3.962c-0.771,0.628-1.738,1.016-2.85,1.016
			c-1.449,0-2.898-0.58-3.816-1.547c-1.979-2.029-1.353-4.203-0.339-6.908l21.063-56.088c0.725-1.98,1.256-2.802,2.075-3.574
			c1.017-0.967,2.176-1.449,3.816-1.449s2.802,0.482,3.816,1.449c0.819,0.772,1.353,1.594,2.075,3.574l21.063,56.088
			c1.014,2.705,1.643,4.878-0.339,6.908c-0.918,0.967-2.367,1.547-3.816,1.547c-1.109,0-2.077-0.388-2.85-1.016
			c-0.967-0.773-1.401-1.643-2.271-3.962l-3.431-9.227H492.75z M507,53.217l-11.015,30.098h22.027L507,53.217z"/>
		<path fill="#FFFFFF" d="M593.325,90.463c-1.159,2.465-2.608,3.865-5.313,3.865c-2.706,0-4.153-1.4-5.36-3.865L568.06,60.028
			v39.274c0,2.563-0.048,3.383-0.771,4.734c-0.772,1.399-2.366,2.366-4.444,2.366c-2.077,0-3.671-0.967-4.442-2.366
			c-0.727-1.354-0.772-2.175-0.772-4.734V43.266c0-1.691,0.241-3.525,1.546-4.879c1.11-1.111,2.514-1.547,3.816-1.547
			c1.207,0,2.271,0.291,2.945,0.677c0.82,0.483,1.886,1.786,2.562,3.14l19.518,39.807l19.421-39.807
			c0.678-1.354,1.738-2.656,2.562-3.14c0.676-0.388,1.739-0.677,2.946-0.677c1.305,0,2.706,0.436,3.814,1.547
			c1.306,1.354,1.546,3.188,1.546,4.879v56.039c0,2.562-0.048,3.382-0.771,4.733c-0.773,1.399-2.367,2.366-4.444,2.366
			c-2.076,0-3.672-0.967-4.442-2.366c-0.727-1.354-0.773-2.174-0.773-4.733V60.029L593.325,90.463z"/>
		<path fill="#FFFFFF" d="M637.283,92.203l-3.433,9.227c-0.867,2.319-1.304,3.188-2.271,3.962c-0.772,0.628-1.738,1.016-2.85,1.016
			c-1.449,0-2.898-0.58-3.816-1.547c-1.98-2.029-1.354-4.203-0.339-6.908l21.063-56.088c0.727-1.98,1.258-2.802,2.077-3.574
			c1.017-0.967,2.174-1.449,3.816-1.449c1.642,0,2.802,0.482,3.814,1.449c0.821,0.772,1.354,1.594,2.077,3.574l21.063,56.088
			c1.014,2.705,1.643,4.878-0.339,6.908c-0.918,0.967-2.367,1.547-3.816,1.547c-1.111,0-2.077-0.388-2.85-1.016
			c-0.968-0.773-1.401-1.643-2.271-3.962l-3.431-9.227H637.283z M651.534,53.217l-11.017,30.098h22.029L651.534,53.217z"/>
		<path fill="#FFFFFF" d="M694.428,104.039c-0.771,1.4-2.366,2.367-4.442,2.367c-2.077,0-3.671-0.967-4.444-2.367
			c-0.725-1.353-0.771-2.174-0.771-4.732V43.941c0-2.561,0.049-3.381,0.771-4.734c0.773-1.4,2.367-2.367,4.444-2.367
			c2.076,0,3.672,0.967,4.442,2.367c0.728,1.354,0.773,2.174,0.773,4.734v55.363C695.202,101.865,695.154,102.686,694.428,104.039z"
			/>
		<path fill="#FFFFFF" d="M740.128,86.695c0-3.092-0.771-5.507-2.705-7.15c-1.739-1.545-4.058-2.416-7.487-2.897l-8.164-1.159
			c-5.557-0.82-9.759-2.562-12.994-5.556c-3.432-3.14-5.072-7.585-5.072-13.188c0-11.98,8.695-20.097,22.995-20.097
			c6.521,0,10.481,1.063,16.184,4.058c2.416,1.256,4.202,3.045,4.202,5.267c0,1.11-0.387,2.222-1.207,3.188
			c-0.771,0.916-1.787,1.498-3.188,1.498c-1.11,0-2.804-0.629-4.202-1.498c-4.106-2.513-7.345-3.383-12.175-3.383
			c-8.115,0-12.466,4.396-12.466,10.676c0,2.512,0.679,4.832,2.515,6.377c1.737,1.547,3.768,2.512,7.536,3.092l8.213,1.256
			c6.278,0.967,9.758,2.416,12.753,5.121c3.672,3.382,5.604,8.117,5.604,14.106c0,12.657-10.242,20.194-24.732,20.194
			c-8.263,0-13.433-1.597-18.503-4.64c-3.574-2.125-4.88-3.573-4.88-6.084c0-1.16,0.53-2.513,1.448-3.431
			c0.869-0.87,1.935-1.256,3.043-1.256c1.354,0,2.563,0.435,4.445,1.739c4.638,3.188,8.695,4.396,14.638,4.396
			C735.008,97.324,740.128,93.459,740.128,86.695z"/>
	</g>
</g>
<g>
	<path fill="#FFFFFF" d="M217.283,164.226v-34.589c0-0.96,0-2.1,0.93-3.029c0.93-0.931,2.07-0.931,3.03-0.931h12.599
		c8.1,0,13.26,5.221,13.26,12.48c0,6.089-3.69,9.989-8.46,11.339l7.65,13.35c0.75,1.32,0.99,1.86,1.02,2.67
		c0.03,1.05-0.48,2.01-1.59,2.67c-0.54,0.33-1.17,0.45-1.74,0.45c-1.62,0-2.37-1.141-3.209-2.641l-8.91-15.599h-8.1v13.829
		c0,1.59-0.03,2.1-0.48,2.94c-0.48,0.869-1.47,1.47-2.76,1.47s-2.28-0.601-2.76-1.47
		C217.313,166.326,217.283,165.816,217.283,164.226z M223.763,131.437v13.439h9.6c4.32,0,7.26-2.459,7.26-6.659
		c0-4.229-2.94-6.78-7.26-6.78H223.763z"/>
	<path fill="#FFFFFF" d="M293.272,167.167c-0.48,0.869-1.47,1.47-2.76,1.47s-2.28-0.601-2.76-1.47c-0.45-0.841-0.48-1.351-0.48-2.94
		v-34.379c0-1.59,0.03-2.1,0.48-2.939c0.48-0.87,1.47-1.47,2.76-1.47s2.28,0.6,2.76,1.47c0.45,0.84,0.48,1.35,0.48,2.939v34.379
		C293.752,165.816,293.723,166.326,293.272,167.167z"/>
	<path fill="#FFFFFF" d="M333.953,147.037c0-8.97,0.15-13.229,4.29-17.369c2.76-2.76,6.36-4.35,11.07-4.35
		c4.68,0,8.279,1.59,11.039,4.35c4.14,4.14,4.32,8.399,4.32,17.369s-0.181,13.229-4.32,17.369c-2.76,2.761-6.359,4.351-11.039,4.351
		c-4.71,0-8.311-1.59-11.07-4.351C334.103,160.266,333.953,156.006,333.953,147.037z M349.313,162.997c2.579,0,4.77-1.021,6.359-2.7
		c2.1-2.25,2.52-4.8,2.52-13.26c0-8.459-0.42-11.039-2.52-13.289c-1.59-1.68-3.78-2.67-6.359-2.67c-2.61,0-4.8,0.99-6.36,2.67
		c-2.13,2.25-2.52,4.83-2.52,13.289c0,8.46,0.39,11.01,2.52,13.26C344.513,161.976,346.702,162.997,349.313,162.997z"/>
	<path fill="#FFFFFF" d="M450.801,167.466c-0.93-0.931-0.93-2.07-0.93-3.03v-34.589c0-1.59,0.03-2.1,0.479-2.939
		c0.48-0.87,1.471-1.47,2.761-1.47s2.279,0.6,2.76,1.47c0.45,0.84,0.479,1.35,0.479,2.939v32.789h16.859c1.38,0,1.98,0.06,2.64,0.42
		c0.78,0.45,1.32,1.32,1.32,2.46s-0.54,2.01-1.32,2.46c-0.659,0.36-1.26,0.42-2.64,0.42h-19.379
		C452.871,168.396,451.731,168.396,450.801,167.466z"/>
	<path fill="#FFFFFF" d="M519.111,159.816l-2.13,5.73c-0.54,1.439-0.811,1.979-1.41,2.46c-0.48,0.39-1.08,0.63-1.77,0.63
		c-0.9,0-1.801-0.36-2.37-0.96c-1.23-1.26-0.84-2.61-0.21-4.29l13.079-34.828c0.45-1.23,0.78-1.74,1.29-2.221
		c0.63-0.6,1.35-0.899,2.37-0.899c1.02,0,1.739,0.3,2.37,0.899c0.51,0.48,0.84,0.99,1.289,2.221l13.08,34.828
		c0.63,1.68,1.02,3.03-0.21,4.29c-0.57,0.6-1.47,0.96-2.37,0.96c-0.689,0-1.29-0.24-1.77-0.63c-0.601-0.48-0.87-1.021-1.41-2.46
		l-2.13-5.73H519.111z M527.961,135.607l-6.84,18.689h13.68L527.961,135.607z"/>
	<path fill="#FFFFFF" d="M582.801,164.226v-34.589c0-0.96,0-2.1,0.93-3.029c0.931-0.931,2.07-0.931,3.03-0.931h12.6
		c8.1,0,13.259,5.221,13.259,12.48c0,6.089-3.689,9.989-8.459,11.339l7.649,13.35c0.75,1.32,0.99,1.86,1.02,2.67
		c0.03,1.05-0.479,2.01-1.59,2.67c-0.54,0.33-1.17,0.45-1.739,0.45c-1.62,0-2.37-1.141-3.21-2.641l-8.91-15.599h-8.1v13.829
		c0,1.59-0.029,2.1-0.479,2.94c-0.48,0.869-1.47,1.47-2.76,1.47s-2.28-0.601-2.761-1.47
		C582.831,166.326,582.801,165.816,582.801,164.226z M589.28,131.437v13.439h9.6c4.32,0,7.26-2.459,7.26-6.659
		c0-4.229-2.939-6.78-7.26-6.78H589.28z"/>
	<path fill="#FFFFFF" d="M659.69,160.327c1.56,1.68,3.75,2.67,6.359,2.67c2.52,0,4.68-0.931,6.33-2.58
		c1.979-2.04,2.43-4.35,2.43-8.85h-5.399c-1.381,0-1.98-0.061-2.641-0.42c-0.779-0.45-1.319-1.32-1.319-2.46
		c0-1.141,0.54-2.01,1.319-2.46c0.66-0.36,1.26-0.42,2.641-0.42h7.68c0.96,0,2.1,0,3.029,0.93s0.93,2.07,0.93,3.03v0.63
		c0,6.96-0.72,10.619-4.05,13.949c-2.97,2.97-6.419,4.41-10.949,4.41c-4.71,0-8.31-1.59-11.069-4.351
		c-4.14-4.14-4.29-8.399-4.29-17.369s0.15-13.229,4.29-17.369c2.76-2.76,6.359-4.35,11.01-4.35c5.369,0,8.579,1.62,11.189,4.41
		c2.399,2.579,3.27,5.339,3.27,6.869c0,1.11-0.27,1.83-0.87,2.43c-0.63,0.601-1.35,0.9-2.25,0.9c-0.81,0-1.47-0.271-1.92-0.63
		c-0.689-0.54-1.109-1.32-1.59-2.43c-1.56-3.66-3.93-5.79-7.949-5.79c-2.521,0-4.59,0.99-6.15,2.67
		c-2.25,2.43-2.55,5.159-2.55,13.289C657.17,155.497,657.561,158.077,659.69,160.327z"/>
	<path fill="#FFFFFF" d="M719.39,147.037c0-8.97,0.15-13.229,4.29-17.369c2.76-2.76,6.359-4.35,11.069-4.35
		c4.68,0,8.279,1.59,11.04,4.35c4.14,4.14,4.319,8.399,4.319,17.369s-0.18,13.229-4.319,17.369c-2.761,2.761-6.36,4.351-11.04,4.351
		c-4.71,0-8.31-1.59-11.069-4.351C719.54,160.266,719.39,156.006,719.39,147.037z M734.749,162.997c2.58,0,4.77-1.021,6.359-2.7
		c2.101-2.25,2.521-4.8,2.521-13.26c0-8.459-0.42-11.039-2.521-13.289c-1.59-1.68-3.779-2.67-6.359-2.67
		c-2.609,0-4.8,0.99-6.359,2.67c-2.13,2.25-2.521,4.83-2.521,13.289c0,8.46,0.391,11.01,2.521,13.26
		C729.949,161.976,732.14,162.997,734.749,162.997z"/>
</g>
</svg>
